<svg width="1170" height="419" viewBox="0 0 1170 419" fill="none" xmlns="http://www.w3.org/2000/svg">
<rect y="0.809326" width="1170" height="418" rx="24" fill="white"/>
<line x1="913" y1="64.8093" x2="913" y2="356.809" stroke="#1DD100" stroke-width="2" stroke-dasharray="5 5"/>
<path d="M872 0.809326C872 11.418 876.214 21.5921 883.716 29.0936C891.217 36.5951 901.391 40.8093 912 40.8093C922.609 40.8093 932.783 36.5951 940.284 29.0936C947.786 21.5922 952 11.418 952 0.809339L872 0.809326Z" fill="#F7F8F8"/>
<path d="M952 419C952 408.391 947.786 398.217 940.284 390.716C932.783 383.214 922.609 379 912 379C901.391 379 891.217 383.214 883.716 390.716C876.214 398.217 872 408.391 872 419L952 419Z" fill="#F7F8F8"/>
</svg>
