<svg width="573" height="220" viewBox="0 0 573 220" fill="none" xmlns="http://www.w3.org/2000/svg">
<rect width="573" height="220" rx="24" fill="#F78C9C"/>
<path d="M310 -3.81596e-07C310 3.15172 310.621 6.27259 311.827 9.1844C313.033 12.0962 314.801 14.742 317.029 16.9706C319.258 19.1992 321.904 20.967 324.816 22.1731C327.727 23.3792 330.848 24 334 24C337.152 24 340.273 23.3792 343.184 22.1731C346.096 20.967 348.742 19.1992 350.971 16.9706C353.199 14.742 354.967 12.0962 356.173 9.1844C357.379 6.27259 358 3.15173 358 1.90735e-06L310 -3.81596e-07Z" fill="white"/>
<path d="M358 220C358 216.848 357.379 213.727 356.173 210.815C354.967 207.904 353.199 205.258 350.971 203.029C348.742 200.801 346.096 199.033 343.184 197.827C340.273 196.621 337.152 196 334 196C330.848 196 327.727 196.621 324.816 197.827C321.904 199.033 319.258 200.801 317.029 203.029C314.801 205.258 313.033 207.904 311.827 210.815C310.621 213.727 310 216.848 310 220L358 220Z" fill="white"/>
<line x1="335" y1="32" x2="335" y2="188" stroke="white" stroke-width="2" stroke-dasharray="5 5"/>
</svg>
